<?xml version="1.0" encoding="UTF-8" standalone="no"?>
<svg
   xmlns="http://www.w3.org/2000/svg"
   id="Titre"
   width="64.000000px"
   height="64.000000px"
   viewBox="0 0 384.000000 384.000000"
   version="1.1">
  <title>ICON_TOOLBAR_SCRATCH</title>
    <g id="HIGHLIGHT">
<g transform="translate(0.000000,384.000000) scale(0.100000,-0.100000)"
fill="#000000" stroke="none">
  
    <path d="M 141.54199,143.41321 H 126.57077 L 116.21155,113.96746 H 70.517418 L 60.15819,143.41321 H 45.896514 L 84.353373,37.763275 H 103.08513 Z M 111.88338,101.90534 93.364482,50.038251 74.774635,101.90534 Z"/>
    <path d="m 237.25841,110.91645 q 0,7.87585 -2.98005,13.90691 -2.98005,6.03106 -8.01776,9.93351 -5.9601,4.68294 -13.12642,6.66964 -7.09536,1.9867 -18.09317,1.9867 H 157.5775 V 37.763275 h 31.29055 q 11.56544,0 17.31268,0.851444 5.74724,0.851443 10.99781,3.54768 5.8182,3.051006 8.44348,7.875852 2.62528,4.753892 2.62528,11.423532 0,7.521083 -3.83149,12.842604 -3.8315,5.250567 -10.21732,8.44348 v 0.567629 q 10.71399,2.199562 16.88696,9.436831 6.17296,7.166315 6.17296,18.164123 z M 213.63086,63.306577 q 0,-3.831496 -1.27717,-6.456779 -1.27716,-2.625284 -4.11531,-4.257217 -3.33482,-1.915748 -8.08871,-2.34147 -4.75389,-0.496675 -11.7783,-0.496675 h -16.74505 v 30.510055 h 18.16412 q 6.59869,0 10.50114,-0.638583 3.90245,-0.709536 7.23727,-2.838144 3.33482,-2.128609 4.68294,-5.463429 1.41907,-3.405773 1.41907,-8.017758 z m 9.01111,48.177503 q 0,-6.38582 -1.91575,-10.14637 -1.91575,-3.760537 -6.95345,-6.385821 -3.40578,-1.77384 -8.30158,-2.270516 -4.82484,-0.567629 -11.7783,-0.567629 h -22.06657 v 39.308306 h 18.58985 q 9.22397,0 15.11312,-0.9224 5.88915,-0.99335 9.64969,-3.54768 3.9734,-2.76719 5.81819,-6.31487 1.8448,-3.54768 1.8448,-9.15302 z"/>
  
  <path
     
     d="M 32.922039,24.160137 H 276.41131 V 296.98274 H 32.922039 Z" />
  <path
     
     d="M 257.90475,307.42856 139.22186,268.14063 20.538968,228.85271 113.90475,145.71427 207.27054,62.575833 232.58765,185.00219 Z" />
  <path
     
     d="M -46.347069,311.50662 H 8.226963 v 112.24227 h -54.574032 z" />
  <path
     
     d="m 249.90476,186.66667 95.2381,57.5238"
     />
  <path
     
     d="m 267.80952,161.14286 96,57.14285"
     />
  <path
     
     d="m 259.42857,172.95238 94.85714,58.28571"
     />
  </g>
  </g>
</svg>
